            <svg width="521.1" height="72.704" viewBox="0 0 521.1 72.704" xmlns="http://www.w3.org/2000/svg"><g id="svgGroup" stroke-linecap="round" fill-rule="evenodd" font-size="9pt" stroke="#ff4940;" stroke-width="1mm" fill="transparent" style="stroke:#ff4940;;stroke-width:1mm;fill:transparent"><path d="M 494 1.202 L 521.1 1.202 L 521.1 72.002 L 499 72.002 L 499 36.702 L 488.1 72.002 L 469.1 72.002 L 458.2 36.702 L 458.2 72.002 L 436 72.002 L 436 1.202 L 463.2 1.202 L 478.8 43.702 L 494 1.202 Z M 285.6 1.202 L 285.6 72.002 L 263.4 72.002 L 239.9 36.402 L 239.9 72.002 L 217.7 72.002 L 217.7 1.202 L 239.9 1.202 L 263.4 37.402 L 263.4 1.202 L 285.6 1.202 Z M 108.2 1.202 L 130.4 1.202 L 130.4 72.002 L 108.2 72.002 L 108.2 44.402 L 87.1 44.402 L 87.1 72.002 L 64.9 72.002 L 64.9 1.202 L 87.1 1.202 L 87.1 26.702 L 108.2 26.702 L 108.2 1.202 Z M 189.3 72.002 L 185.8 61.302 L 162.2 61.302 L 158.7 72.002 L 135.4 72.002 L 161.3 1.202 L 186.9 1.202 L 212.7 72.002 L 189.3 72.002 Z M 291.6 1.202 L 351.2 1.202 L 351.2 18.802 L 332.4 18.802 L 332.4 72.002 L 310.2 72.002 L 310.2 18.802 L 291.6 18.802 L 291.6 1.202 Z M 31 49.502 L 22.2 49.502 L 22.2 72.002 L 0 72.002 L 0 1.202 L 31 1.202 A 40.995 40.995 0 0 1 38.794 1.896 Q 46.253 3.342 50.95 7.802 Q 57.9 14.402 57.9 25.502 Q 57.9 32.202 54.8 37.652 A 21.608 21.608 0 0 1 47.293 45.358 A 26.558 26.558 0 0 1 45.65 46.302 A 26.417 26.417 0 0 1 38.502 48.799 Q 35.357 49.436 31.751 49.496 A 45.334 45.334 0 0 1 31 49.502 Z M 391.7 72.702 Q 381.7 72.702 373.35 68.002 Q 365 63.302 360.1 55.002 Q 355.2 46.702 355.2 36.302 A 37.895 37.895 0 0 1 357.114 24.122 A 34.406 34.406 0 0 1 360.1 17.602 Q 365 9.302 373.35 4.652 Q 381.7 0.002 391.7 0.002 Q 401.7 0.002 410 4.652 Q 418.3 9.302 423.15 17.602 A 35.729 35.729 0 0 1 427.924 33.735 A 42.999 42.999 0 0 1 428 36.302 A 38.253 38.253 0 0 1 426.105 48.482 A 34.576 34.576 0 0 1 423.15 55.002 Q 418.3 63.302 409.95 68.002 Q 401.6 72.702 391.7 72.702 Z M 391.7 52.002 Q 398.3 52.002 401.9 47.752 A 14.467 14.467 0 0 0 404.811 42.037 Q 405.5 39.452 405.5 36.302 Q 405.5 29.002 401.9 24.752 Q 398.3 20.502 391.7 20.502 A 16.869 16.869 0 0 0 387.46 21.004 A 11.519 11.519 0 0 0 381.4 24.752 Q 377.8 29.002 377.8 36.302 A 23.358 23.358 0 0 0 378.245 41 Q 378.835 43.872 380.207 46.104 A 13.418 13.418 0 0 0 381.4 47.752 A 11.686 11.686 0 0 0 388.268 51.684 A 17.615 17.615 0 0 0 391.7 52.002 Z M 167.6 44.602 L 180.4 44.602 L 174 24.902 L 167.6 44.602 Z M 28.5 19.002 L 22.2 19.002 L 22.2 32.002 L 28.5 32.002 Q 34.369 32.002 35.246 27.299 A 9.817 9.817 0 0 0 35.4 25.502 A 8.799 8.799 0 0 0 35.046 22.89 Q 33.837 19.002 28.5 19.002 Z" vector-effect="non-scaling-stroke"/></g></svg>